<?xml version="1.0" standalone="no"?>
<!DOCTYPE svg PUBLIC "-//W3C//DTD SVG 20010904//EN"
 "http://www.w3.org/TR/2001/REC-SVG-20010904/DTD/svg10.dtd">
<svg version="1.0" xmlns="http://www.w3.org/2000/svg"
 width="67.000000pt" height="67.000000pt" viewBox="0 0 67.000000 67.000000"
 preserveAspectRatio="xMidYMid meet">

<g transform="translate(0.000000,67.000000) scale(0.100000,-0.100000)"
fill="#000000" stroke="none">
<path d="M37 632 c-15 -16 -17 -52 -17 -294 0 -267 1 -275 21 -294 19 -17 42
-19 268 -22 269 -4 310 2 329 43 8 18 12 107 12 276 0 246 -4 281 -34 301 -6
4 -135 8 -287 8 -255 0 -277 -1 -292 -18z m561 -18 c22 -15 22 -18 22 -270 0
-241 -1 -255 -20 -274 -19 -19 -33 -20 -269 -20 l-250 0 -20 26 c-20 25 -21
39 -21 264 0 225 1 239 21 264 l20 26 248 0 c207 0 250 -2 269 -16z"/>
<path d="M470 423 c0 -37 -1 -38 -37 -38 -35 0 -39 -3 -52 -41 -12 -34 -12
-44 0 -70 13 -27 18 -29 72 -30 l57 -1 0 108 c0 102 -1 109 -20 109 -16 0 -20
-7 -20 -37z m-5 -108 c0 -33 -4 -41 -21 -43 -16 -2 -23 3 -27 20 -10 39 3 69
27 66 17 -2 21 -10 21 -43z"/>
<path d="M150 339 l0 -101 61 4 c49 4 66 9 80 27 27 33 26 110 -2 145 -18 23
-28 26 -80 26 l-59 0 0 -101z m108 59 c15 -15 16 -82 2 -109 -7 -12 -21 -19
-40 -19 l-30 0 0 70 c0 70 0 70 28 70 15 0 33 -5 40 -12z"/>
</g>
</svg>
