<svg class="border shadow-md" viewBox="0 0 1351.68 760.32" xmlns="http://www.w3.org/2000/svg" preserveAspectRatio="none" style="width: 1351.68px; height: 760.32px;"><rect class="bg" id="bg" x="0" y="0" width="1351.68" height="760.32" fill="#ffffff"/><path d="M 0 -63.36000000000001 L 0 -63.36&#10;                L 150.19 -31.68&#10;                L 450.56 -63.36 L 450.56 -63.36&#10;                L 600.75 -8.36&#10;                L 901.12 -63.36 L 901.12 -63.36&#10;                L 1093.12 -1.36&#10;                L 1351.68 -63.36 L 1351.68 -63.36&#10;                L 1501.87 -3.36&#10;                L 1802.24 -63.36  V 760.32 H 0 V -63.36 Z" fill="#FFFFFF"/><path d="M 0 0 L 0 0.00&#10;                L 150.19 48.00&#10;                L 450.56 0.00 L 450.56 0.00&#10;                L 600.75 31.68&#10;                L 901.12 0.00 L 901.12 0.00&#10;                L 1129.12 40.00&#10;                L 1351.68 0.00 L 1351.68 0.00&#10;                L 1501.87 63.00&#10;                L 1802.24 0.00  V 760.32 H 0 V 0.00 Z" fill="#eceef2"/><path d="M 0 63.36000000000001 L 0 63.36&#10;                L 150.19 95.04&#10;                L 450.56 63.36 L 450.56 63.36&#10;                L 600.75 95.04&#10;                L 901.12 63.36 L 901.12 63.36&#10;                L 1051.31 95.04&#10;                L 1351.68 63.36 L 1351.68 63.36&#10;                L 1647.68 95.36&#10;                L 1802.24 63.36  V 760.32 H 0 V 63.36 Z" fill="#d9dde5"/><path d="M 0 126.72000000000001 L 0 126.72&#10;                L 226.00 172.72&#10;                L 450.56 126.72 L 450.56 126.72&#10;                L 703.56 158.40&#10;                L 901.12 126.72 L 901.12 126.72&#10;                L 1218.12 159.72&#10;                L 1351.68 126.72 L 1351.68 126.72&#10;                L 1501.87 159.72&#10;                L 1802.24 126.72  V 760.32 H 0 V 126.72 Z" fill="#c6ccd8"/><path d="M 0 190.08 L 0 190.08&#10;                L 150.19 251.08&#10;                L 450.56 190.08 L 450.56 190.08&#10;                L 677.56 221.76&#10;                L 901.12 190.08 L 901.12 190.08&#10;                L 1174.12 221.76&#10;                L 1351.68 190.08 L 1351.68 190.08&#10;                L 1501.87 239.08&#10;                L 1802.24 190.08  V 760.32 H 0 V 190.08 Z" fill="#b3bbcb"/><path d="M 0 253.44000000000003 L 0 253.44&#10;                L 150.19 288.44&#10;                L 450.56 253.44 L 450.56 253.44&#10;                L 600.75 285.12&#10;                L 901.12 253.44 L 901.12 253.44&#10;                L 1116.12 285.12&#10;                L 1351.68 253.44 L 1351.68 253.44&#10;                L 1501.87 301.44&#10;                L 1802.24 253.44  V 760.32 H 0 V 253.44 Z" fill="#a0aabe"/><path d="M 0 316.8 L 0 316.80&#10;                L 150.19 348.48&#10;                L 450.56 316.80 L 450.56 316.80&#10;                L 641.56 356.80&#10;                L 901.12 316.80 L 901.12 316.80&#10;                L 1051.31 368.80&#10;                L 1351.68 316.80 L 1351.68 316.80&#10;                L 1574.68 348.48&#10;                L 1802.24 316.80  V 760.32 H 0 V 316.80 Z" fill="#8d99b1"/><path d="M 0 380.16 L 0 380.16&#10;                L 150.19 411.84&#10;                L 450.56 380.16 L 450.56 380.16&#10;                L 630.56 411.84&#10;                L 901.12 380.16 L 901.12 380.16&#10;                L 1051.31 422.16&#10;                L 1351.68 380.16 L 1351.68 380.16&#10;                L 1501.87 411.84&#10;                L 1802.24 380.16  V 760.32 H 0 V 380.16 Z" fill="#7a88a4"/><path d="M 0 443.52000000000004 L 0 443.52&#10;                L 199.00 475.20&#10;                L 450.56 443.52 L 450.56 443.52&#10;                L 744.56 488.52&#10;                L 901.12 443.52 L 901.12 443.52&#10;                L 1051.31 496.52&#10;                L 1351.68 443.52 L 1351.68 443.52&#10;                L 1501.87 475.20&#10;                L 1802.24 443.52  V 760.32 H 0 V 443.52 Z" fill="#677797"/><path d="M 0 506.88000000000005 L 0 506.88&#10;                L 184.00 561.88&#10;                L 450.56 506.88 L 450.56 506.88&#10;                L 746.56 559.88&#10;                L 901.12 506.88 L 901.12 506.88&#10;                L 1051.31 538.56&#10;                L 1351.68 506.88 L 1351.68 506.88&#10;                L 1617.68 538.56&#10;                L 1802.24 506.88  V 760.32 H 0 V 506.88 Z" fill="#54668a"/><path d="M 0 570.24 L 0 570.24&#10;                L 260.00 608.24&#10;                L 450.56 570.24 L 450.56 570.24&#10;                L 600.75 601.92&#10;                L 901.12 570.24 L 901.12 570.24&#10;                L 1137.12 601.92&#10;                L 1351.68 570.24 L 1351.68 570.24&#10;                L 1513.68 618.24&#10;                L 1802.24 570.24  V 760.32 H 0 V 570.24 Z" fill="#41557d"/><path d="M 0 633.6 L 0 633.60&#10;                L 150.19 665.28&#10;                L 450.56 633.60 L 450.56 633.60&#10;                L 758.56 665.28&#10;                L 901.12 633.60 L 901.12 633.60&#10;                L 1206.12 684.60&#10;                L 1351.68 633.60 L 1351.68 633.60&#10;                L 1522.68 694.60&#10;                L 1802.24 633.60  V 760.32 H 0 V 633.60 Z" fill="#2e4470"/><path d="M 0 696.96 L 0 696.96&#10;                L 150.19 730.96&#10;                L 450.56 696.96 L 450.56 696.96&#10;                L 721.56 736.96&#10;                L 901.12 696.96 L 901.12 696.96&#10;                L 1196.12 755.96&#10;                L 1351.68 696.96 L 1351.68 696.96&#10;                L 1648.68 745.96&#10;                L 1802.24 696.96  V 760.32 H 0 V 696.96 Z" fill="#1b3363"/></svg>